<?xml version="1.0" standalone="no"?><!DOCTYPE svg PUBLIC "-//W3C//DTD SVG 1.1//EN" "http://www.w3.org/Graphics/SVG/1.1/DTD/svg11.dtd"><svg t="1725353166572" class="icon" viewBox="0 0 1024 1024" version="1.1" xmlns="http://www.w3.org/2000/svg" p-id="15399" width="200" height="200" xmlns:xlink="http://www.w3.org/1999/xlink"><path d="M857.6 245.4c-1-28.4-23.1-48.6-51.4-51.4-35.4-3.5-49.9-3.9-97.8-3.5v69.7c0 25.1-20.5 45.5-45.5 45.5s-45.5-20.5-45.5-45.5v-70.9c-78.6-0.6-118.1-0.6-203.2 0.2v70.7c0 25.1-20.5 45.5-45.5 45.5s-45.5-20.5-45.5-45.5v-69.4c-49.7 0.9-67.5 0.4-92.4 3.3-54.1 6.3-52 44.7-54.3 73-14.6 185.7-4.2 548.8-4.2 548.8 2.1 41.7 14.6 73 60.5 75.1 0 0 190.8 6.6 426.5 3 61-0.9 87-2.5 124-5.1 28.3-2 69-25.2 73-77.2 2.9-38 4.9-203.6 5.5-301.9 0.6-112.2-0.5-161.6-4.2-264.4z" fill="#d81e06" p-id="15400" data-spm-anchor-id="a313x.search_index.0.i13.d4b73a814U6s7h" class=""></path><path d="M708.4 140.7c0-25-20.5-45.5-45.5-45.5s-45.5 20.5-45.5 45.5v48.6c31.6 0.3 62.2 0.7 91.1 1.2v-49.8z" fill="#f4ea2a" p-id="15401" data-spm-anchor-id="a313x.search_index.0.i16.d4b73a814U6s7h" class=""></path><path d="M662.8 305.8c25 0 45.5-20.5 45.5-45.5v-69.7c-28.9-0.5-59.5-0.9-91.1-1.2v70.9c0.1 25 20.6 45.5 45.6 45.5z" fill="#f4ea2a" p-id="15402" data-spm-anchor-id="a313x.search_index.0.i17.d4b73a814U6s7h" class=""></path><path d="M414.1 140.7c0-25-20.5-45.5-45.5-45.5s-45.5 20.5-45.5 45.5v50.1c28.1-0.5 58.7-0.9 91.1-1.3v-48.8z" fill="#f4ea2a" p-id="15403" data-spm-anchor-id="a313x.search_index.0.i14.d4b73a814U6s7h" class=""></path><path d="M368.6 305.8c25 0 45.5-20.5 45.5-45.5v-70.7c-32.4 0.3-63 0.8-91.1 1.3v69.4c0 25 20.5 45.5 45.6 45.5z" fill="#f4ea2a" p-id="15404" data-spm-anchor-id="a313x.search_index.0.i15.d4b73a814U6s7h" class=""></path><path d="M635.1 593.8h-85.9v-25.1h85.9c18.2 0 32.9-14.7 32.9-32.9s-14.7-32.9-32.9-32.9h-49.3l53.2-64.4c11.6-14 9.6-34.7-4.4-46.3-14-11.6-34.7-9.6-46.3 4.4L516.1 484l-71.7-87.4c-11.5-14-32.3-16.1-46.3-4.6-14 11.5-16.1 32.2-4.6 46.3l52.9 64.5h-48.9c-18.2 0-32.9 14.7-32.9 32.9s14.7 32.9 32.9 32.9h85.9v25.1h-85.9c-18.2 0-32.9 14.7-32.9 32.9s14.7 32.9 32.9 32.9h85.9V736c0 18.2 14.7 32.9 32.9 32.9s32.9-14.7 32.9-32.9v-76.4h85.9c18.2 0 32.9-14.7 32.9-32.9s-14.7-32.9-32.9-32.9z" fill="#ffffff" p-id="15405" data-spm-anchor-id="a313x.search_index.0.i18.d4b73a814U6s7h" class=""></path></svg>