<?xml version="1.0" standalone="no"?><!DOCTYPE svg PUBLIC "-//W3C//DTD SVG 1.1//EN" "http://www.w3.org/Graphics/SVG/1.1/DTD/svg11.dtd"><svg t="1725348930502" class="icon" viewBox="0 0 1024 1024" version="1.1" xmlns="http://www.w3.org/2000/svg" p-id="11277" xmlns:xlink="http://www.w3.org/1999/xlink" width="200" height="200"><path d="M452.4 163.2v350c0 33.1 26.9 60 60 60h350c-4.6 26.8-12.2 52.9-22.9 78.2-17.9 42.3-43.5 80.2-76.1 112.9-32.6 32.6-70.6 58.2-112.9 76.1-43.7 18.5-90.2 27.9-138.2 27.9-48 0-94.4-9.4-138.2-27.9-42.3-17.9-80.2-43.5-112.9-76.1-32.6-32.6-58.2-70.6-76.1-112.9-18.5-43.7-27.9-90.2-27.9-138.2 0-48 9.4-94.4 27.9-138.2 17.9-42.3 43.5-80.2 76.1-112.9 32.8-32.5 70.8-58.1 113-76 25.3-10.7 51.4-18.3 78.2-22.9m60-65c-229.2 0-415 185.8-415 415s185.8 415 415 415 415-185.8 415-415h-415v-415z" fill="#bfbfbf" p-id="11278"></path><path d="M624.3 164.1c19.8 4 39.2 9.9 58 17.9 36.1 15.3 68.5 37.1 96.4 65 27.9 27.9 49.7 60.3 65 96.4 7.9 18.8 13.9 38.1 17.9 58H624.3V164.1m-60-65.9v363.1h363.1c0-200.5-162.6-363.1-363.1-363.1z" fill="#bfbfbf" p-id="11279"></path></svg>