<?xml version="1.0" standalone="no"?><!DOCTYPE svg PUBLIC "-//W3C//DTD SVG 1.1//EN" "http://www.w3.org/Graphics/SVG/1.1/DTD/svg11.dtd"><svg t="1725351715698" class="icon" viewBox="0 0 1024 1024" version="1.1" xmlns="http://www.w3.org/2000/svg" p-id="12891" xmlns:xlink="http://www.w3.org/1999/xlink" width="200" height="200"><path d="M512 1024a512 512 0 1 1 512-512 512.595349 512.595349 0 0 1-512 512z m0-952.55814a440.55814 440.55814 0 1 0 440.55814 440.55814 441.093953 441.093953 0 0 0-440.55814-440.55814z" p-id="12892" fill="#bfbfbf"></path><path d="M512 609.28a221.291163 221.291163 0 1 1 221.291163-221.291163A221.529302 221.529302 0 0 1 512 609.28zM512 238.139535a149.849302 149.849302 0 1 0 149.849302 149.849302A150.027907 150.027907 0 0 0 512 238.139535zM765.737674 940.651163h-71.44186v-238.615814H329.704186V940.651163h-71.44186v-310.057675h507.475348V940.651163z" p-id="12893" fill="#bfbfbf"></path></svg>